<svg width="15" height="18" viewBox="0 0 15 18" fill="none" xmlns="http://www.w3.org/2000/svg">
<path d="M14 7.54545L14.8 7.54545L14 7.54545ZM7.5 17L7.0541 17.6642C7.3238 17.8453 7.6762 17.8453 7.9459 17.6642L7.5 17ZM1 7.54545H0.2H1ZM7.5 1V1.8V1ZM13.2 7.54545C13.2 9.77145 11.7601 11.9407 10.1673 13.6336C9.38698 14.4631 8.60395 15.1424 8.01516 15.6145C7.72139 15.8501 7.47757 16.0328 7.30876 16.1556C7.22439 16.2169 7.15888 16.2632 7.11536 16.2936C7.0936 16.3088 7.07736 16.3199 7.06701 16.327C7.06184 16.3305 7.05814 16.3331 7.05598 16.3345C7.05489 16.3353 7.05419 16.3357 7.05387 16.3359C7.05372 16.336 7.05366 16.3361 7.05369 16.3361C7.05371 16.3361 7.05381 16.336 7.05382 16.336C7.05395 16.3359 7.0541 16.3358 7.5 17C7.9459 17.6642 7.9461 17.6641 7.94633 17.6639C7.94643 17.6638 7.94668 17.6637 7.9469 17.6635C7.94733 17.6632 7.94786 17.6629 7.94849 17.6625C7.94975 17.6616 7.95141 17.6605 7.95345 17.6591C7.95753 17.6564 7.96315 17.6525 7.97028 17.6476C7.98453 17.6379 8.00479 17.624 8.03064 17.6059C8.08233 17.5699 8.15647 17.5174 8.24983 17.4495C8.43649 17.3138 8.70049 17.1158 9.01609 16.8628C9.64605 16.3576 10.488 15.6278 11.3327 14.73C12.9899 12.9684 14.8 10.4104 14.8 7.54545H13.2ZM7.5 17C7.9459 16.3358 7.94605 16.3359 7.94618 16.336C7.94619 16.336 7.94629 16.3361 7.94631 16.3361C7.94634 16.3361 7.94628 16.336 7.94613 16.3359C7.94581 16.3357 7.94511 16.3353 7.94402 16.3345C7.94186 16.3331 7.93816 16.3305 7.93299 16.327C7.92264 16.3199 7.9064 16.3088 7.88464 16.2936C7.84112 16.2632 7.77561 16.2169 7.69124 16.1556C7.52243 16.0328 7.27861 15.8501 6.98484 15.6145C6.39605 15.1424 5.61302 14.4631 4.83267 13.6336C3.23993 11.9407 1.8 9.77145 1.8 7.54545H0.2C0.2 10.4104 2.01007 12.9684 3.66733 14.73C4.51198 15.6278 5.35395 16.3576 5.98391 16.8628C6.29951 17.1158 6.56351 17.3138 6.75017 17.4495C6.84353 17.5174 6.91767 17.5699 6.96936 17.6059C6.99521 17.624 7.01547 17.6379 7.02972 17.6476C7.03685 17.6525 7.04247 17.6564 7.04655 17.6591C7.04859 17.6605 7.05025 17.6616 7.05151 17.6625C7.05214 17.6629 7.05267 17.6632 7.0531 17.6635C7.05332 17.6637 7.05357 17.6638 7.05367 17.6639C7.0539 17.6641 7.0541 17.6642 7.5 17ZM1.8 7.54545C1.8 6.01987 2.40188 4.55789 3.47146 3.48083L2.33615 2.35341C0.96776 3.73137 0.2 5.59911 0.2 7.54545L1.8 7.54545ZM3.47146 3.48083C4.54085 2.40396 5.99007 1.8 7.5 1.8V0.2C5.56211 0.2 3.70473 0.975258 2.33615 2.35341L3.47146 3.48083ZM7.5 1.8C9.00993 1.8 10.4591 2.40396 11.5285 3.48083L12.6638 2.35341C11.2953 0.975258 9.43789 0.2 7.5 0.2V1.8ZM11.5285 3.48083C12.5981 4.55789 13.2 6.01987 13.2 7.54545L14.8 7.54545C14.8 5.59911 14.0322 3.73137 12.6638 2.35341L11.5285 3.48083ZM8.86667 7.54545C8.86667 8.31388 8.24954 8.92727 7.5 8.92727V10.5273C9.14369 10.5273 10.4667 9.187 10.4667 7.54545H8.86667ZM7.5 8.92727C6.75046 8.92727 6.13333 8.31388 6.13333 7.54545H4.53333C4.53333 9.187 5.85631 10.5273 7.5 10.5273V8.92727ZM6.13333 7.54545C6.13333 6.77703 6.75046 6.16364 7.5 6.16364V4.56364C5.85631 4.56364 4.53333 5.90391 4.53333 7.54545H6.13333ZM7.5 6.16364C8.24954 6.16364 8.86667 6.77703 8.86667 7.54545H10.4667C10.4667 5.90391 9.14369 4.56364 7.5 4.56364V6.16364Z" fill="#101828"/>
</svg>
