<svg width="6" height="10" viewBox="0 0 6 10" fill="none" xmlns="http://www.w3.org/2000/svg">
<path d="M1 5L0.434314 4.43431C0.284285 4.58434 0.2 4.78783 0.2 5C0.199999 5.21217 0.284285 5.41566 0.434314 5.56568L1 5ZM4.43431 9.56569C4.74673 9.8781 5.25327 9.8781 5.56568 9.56569C5.8781 9.25327 5.8781 8.74673 5.56568 8.43431L4.43431 9.56569ZM5.56569 1.56569C5.8781 1.25327 5.8781 0.746734 5.56569 0.434315C5.25327 0.121895 4.74673 0.121895 4.43431 0.434314L5.56569 1.56569ZM5.56568 8.43431L1.56569 4.43431L0.434314 5.56568L4.43431 9.56569L5.56568 8.43431ZM1.56568 5.56569L5.56569 1.56569L4.43431 0.434314L0.434314 4.43431L1.56568 5.56569Z" fill="white"/>
</svg>
