<svg width="0" height="0" class="hidden">
  <symbol fill="" xmlns="http://www.w3.org/2000/svg" viewBox="0 0 19 18" id="browse">
    <path d="M12.7921 5.608L13.5511 5.86098C13.6469 5.57351 13.5721 5.25658 13.3578 5.04231C13.1436 4.82805 12.8266 4.75323 12.5392 4.84905L12.7921 5.608ZM11.0961 10.696L11.3491 11.4549C11.588 11.3753 11.7755 11.1879 11.8551 10.949L11.0961 10.696ZM6.00815 12.392L5.2492 12.139C5.15338 12.4265 5.2282 12.7434 5.44246 12.9577C5.65673 13.172 5.97366 13.2468 6.26113 13.1509L6.00815 12.392ZM7.70415 7.304L7.45116 6.54505C7.21228 6.62468 7.02483 6.81213 6.9452 7.05102L7.70415 7.304ZM16.6001 9C16.6001 12.9765 13.3766 16.2 9.40015 16.2V17.8C14.2603 17.8 18.2001 13.8601 18.2001 9H16.6001ZM9.40015 16.2C5.4237 16.2 2.20015 12.9765 2.20015 9H0.600146C0.600146 13.8601 4.54004 17.8 9.40015 17.8V16.2ZM2.20015 9C2.20015 5.02355 5.4237 1.8 9.40015 1.8V0.2C4.54004 0.2 0.600146 4.13989 0.600146 9H2.20015ZM9.40015 1.8C13.3766 1.8 16.6001 5.02355 16.6001 9H18.2001C18.2001 4.13989 14.2603 0.2 9.40015 0.2V1.8ZM12.0332 5.35502L10.3372 10.443L11.8551 10.949L13.5511 5.86098L12.0332 5.35502ZM10.8432 9.93705L5.75516 11.6331L6.26113 13.1509L11.3491 11.4549L10.8432 9.93705ZM6.76709 12.645L8.46309 7.55698L6.9452 7.05102L5.2492 12.139L6.76709 12.645ZM7.95713 8.06295L13.0451 6.36695L12.5392 4.84905L7.45116 6.54505L7.95713 8.06295Z" fill=""></path>
  </symbol>
  <symbol fill="" xmlns="http://www.w3.org/2000/svg" viewBox="0 0 20 18" id="cart">
    <path  d="M1 0.2C0.558172 0.2 0.2 0.558172 0.2 1C0.2 1.44183 0.558172 1.8 1 1.8V0.2ZM4.27273 1L5.05357 0.825989C4.97205 0.460183 4.64751 0.2 4.27273 0.2V1ZM6.46545 10.8395L7.24981 10.6821C7.2487 10.6765 7.24753 10.671 7.2463 10.6655L6.46545 10.8395ZM8.10182 12.1429V11.3429C8.09676 11.3429 8.09171 11.3429 8.08665 11.343L8.10182 12.1429ZM16.0545 12.1429L16.0697 11.343C16.0647 11.3429 16.0596 11.3429 16.0545 11.3429V12.1429ZM17.6909 10.8395L16.9106 10.6632C16.9092 10.6694 16.9078 10.6757 16.9066 10.6821L17.6909 10.8395ZM19 5.04762L19.7803 5.22399C19.8339 4.98681 19.7767 4.73812 19.6249 4.54817C19.4731 4.35821 19.2432 4.24762 19 4.24762V5.04762ZM5.09091 4.24762C4.64908 4.24762 4.29091 4.60579 4.29091 5.04762C4.29091 5.48945 4.64908 5.84762 5.09091 5.84762V4.24762ZM7.56364 16.1905C7.56364 16.192 7.56349 16.1917 7.56373 16.1911C7.56374 16.1911 7.56318 16.1924 7.56133 16.1942C7.55947 16.196 7.55727 16.1975 7.55509 16.1984C7.55342 16.1991 7.55066 16.2 7.54545 16.2V17.8C8.43111 17.8 9.16364 17.0874 9.16364 16.1905H7.56364ZM7.54545 16.2C7.54025 16.2 7.53749 16.1991 7.53582 16.1984C7.53364 16.1975 7.53143 16.196 7.52958 16.1942C7.52773 16.1924 7.52717 16.1911 7.52717 16.1911C7.52742 16.1917 7.52727 16.192 7.52727 16.1905H5.92727C5.92727 17.0874 6.6598 17.8 7.54545 17.8V16.2ZM7.52727 16.1905C7.52727 16.1889 7.52742 16.1893 7.52717 16.1898C7.52717 16.1899 7.52773 16.1886 7.52958 16.1867C7.53143 16.1849 7.53364 16.1835 7.53582 16.1826C7.53749 16.1819 7.54025 16.181 7.54545 16.181V14.581C6.6598 14.581 5.92727 15.2936 5.92727 16.1905H7.52727ZM7.54545 16.181C7.55066 16.181 7.55342 16.1819 7.55509 16.1826C7.55727 16.1835 7.55948 16.1849 7.56133 16.1867C7.56318 16.1886 7.56374 16.1899 7.56374 16.1898C7.56349 16.1893 7.56364 16.1889 7.56364 16.1905H9.16364C9.16364 15.2936 8.43111 14.581 7.54545 14.581V16.181ZM16.5636 16.1905C16.5636 16.192 16.5635 16.1917 16.5637 16.1911C16.5637 16.1911 16.5632 16.1924 16.5613 16.1942C16.5595 16.196 16.5573 16.1975 16.5551 16.1984C16.5534 16.1991 16.5507 16.2 16.5455 16.2V17.8C17.4311 17.8 18.1636 17.0874 18.1636 16.1905H16.5636ZM16.5455 16.2C16.5403 16.2 16.5375 16.1991 16.5358 16.1984C16.5336 16.1975 16.5314 16.196 16.5296 16.1942C16.5277 16.1924 16.5272 16.1911 16.5272 16.1911C16.5274 16.1917 16.5273 16.192 16.5273 16.1905H14.9273C14.9273 17.0874 15.6598 17.8 16.5455 17.8V16.2ZM16.5273 16.1905C16.5273 16.1889 16.5274 16.1893 16.5272 16.1898C16.5272 16.1899 16.5277 16.1886 16.5296 16.1867C16.5314 16.1849 16.5336 16.1835 16.5358 16.1826C16.5375 16.1819 16.5403 16.181 16.5455 16.181V14.581C15.6598 14.581 14.9273 15.2936 14.9273 16.1905H16.5273ZM16.5455 16.181C16.5507 16.181 16.5534 16.1819 16.5551 16.1826C16.5573 16.1835 16.5595 16.1849 16.5613 16.1867C16.5632 16.1886 16.5637 16.1899 16.5637 16.1898C16.5635 16.1893 16.5636 16.1889 16.5636 16.1905H18.1636C18.1636 15.2936 17.4311 14.581 16.5455 14.581V16.181ZM1 1.8H4.27273V0.2H1V1.8ZM3.49188 1.17401L5.68461 11.0135L7.2463 10.6655L5.05357 0.825989L3.49188 1.17401ZM5.6811 10.997C5.79329 11.5558 6.10023 12.0561 6.54594 12.4111L7.54277 11.1595C7.39016 11.038 7.28725 10.8686 7.24981 10.6821L5.6811 10.997ZM6.54594 12.4111C6.99147 12.7659 7.54762 12.9535 8.11698 12.9427L8.08665 11.343C7.88807 11.3468 7.69556 11.2812 7.54277 11.1595L6.54594 12.4111ZM8.10182 12.9429H16.0545V11.3429H8.10182V12.9429ZM16.0394 12.9427C16.6087 12.9535 17.1649 12.7659 17.6104 12.4111L16.6136 11.1595C16.4608 11.2812 16.2683 11.3468 16.0697 11.343L16.0394 12.9427ZM17.6104 12.4111C18.0561 12.0561 18.3631 11.5558 18.4753 10.997L16.9066 10.6821C16.8691 10.8686 16.7662 11.038 16.6136 11.1595L17.6104 12.4111ZM18.4712 11.0159L19.7803 5.22399L18.2197 4.87125L16.9106 10.6632L18.4712 11.0159ZM19 4.24762H5.09091V5.84762H19V4.24762Z" fill=""></path>
  </symbol>
  <symbol fill="" xmlns="http://www.w3.org/2000/svg" viewBox="0 0 16 18" id="account">
    <path d="M14.2 17C14.2 17.4418 14.5582 17.8 15 17.8C15.4418 17.8 15.8 17.4418 15.8 17H14.2ZM11.5 11.6667V10.8667V11.6667ZM4.5 11.6667L4.5 10.8667L4.5 11.6667ZM1 15.2222H0.2H1ZM0.2 17C0.2 17.4418 0.558172 17.8 1 17.8C1.44183 17.8 1.8 17.4418 1.8 17H0.2ZM15.8 17V15.2222H14.2V17H15.8ZM15.8 15.2222C15.8 14.0711 15.35 12.9646 14.545 12.1469L13.4048 13.2693C13.9125 13.7851 14.2 14.4874 14.2 15.2222H15.8ZM14.545 12.1469C13.7396 11.3287 12.6445 10.8667 11.5 10.8667L11.5 12.4667C12.212 12.4667 12.8974 12.7539 13.4048 13.2693L14.545 12.1469ZM11.5 10.8667H4.5V12.4667H11.5V10.8667ZM4.5 10.8667C3.35547 10.8667 2.26041 11.3287 1.455 12.1469L2.59525 13.2693C3.1026 12.7539 3.78802 12.4667 4.5 12.4667L4.5 10.8667ZM1.455 12.1469C0.650023 12.9646 0.2 14.0711 0.2 15.2222H1.8C1.8 14.4874 2.08747 13.7851 2.59525 13.2693L1.455 12.1469ZM0.2 15.2222V17H1.8V15.2222H0.2ZM10.7 4.55556C10.7 6.08933 9.47934 7.31111 8 7.31111V8.91111C10.3867 8.91111 12.3 6.94914 12.3 4.55556H10.7ZM8 7.31111C6.52066 7.31111 5.3 6.08933 5.3 4.55556H3.7C3.7 6.94914 5.61334 8.91111 8 8.91111V7.31111ZM5.3 4.55556C5.3 3.02178 6.52066 1.8 8 1.8V0.2C5.61334 0.2 3.7 2.16197 3.7 4.55556H5.3ZM8 1.8C9.47934 1.8 10.7 3.02178 10.7 4.55556H12.3C12.3 2.16197 10.3867 0.2 8 0.2V1.8Z" fill=""></path>
  </symbol>
  <symbol fill="" xmlns="http://www.w3.org/2000/svg" viewBox="0 0 18 18" id="search">
    <path d="M16.4343 17.5657C16.7467 17.8781 17.2533 17.8781 17.5657 17.5657C17.8781 17.2533 17.8781 16.7467 17.5657 16.4343L16.4343 17.5657ZM13.699 12.5676C13.3866 12.2552 12.8801 12.2552 12.5676 12.5676C12.2552 12.8801 12.2552 13.3866 12.5676 13.699L13.699 12.5676ZM14.4222 8.11111C14.4222 11.5966 11.5966 14.4222 8.11111 14.4222V16.0222C12.4803 16.0222 16.0222 12.4803 16.0222 8.11111H14.4222ZM8.11111 14.4222C4.62558 14.4222 1.8 11.5966 1.8 8.11111H0.2C0.2 12.4803 3.74192 16.0222 8.11111 16.0222V14.4222ZM1.8 8.11111C1.8 4.62558 4.62558 1.8 8.11111 1.8V0.2C3.74192 0.2 0.2 3.74192 0.2 8.11111H1.8ZM8.11111 1.8C11.5966 1.8 14.4222 4.62558 14.4222 8.11111H16.0222C16.0222 3.74192 12.4803 0.2 8.11111 0.2V1.8ZM17.5657 16.4343L13.699 12.5676L12.5676 13.699L16.4343 17.5657L17.5657 16.4343Z" fill=""></path>
  </symbol>
  <symbol fill="" xmlns="http://www.w3.org/2000/svg" viewBox="0 0 16 18" id="home">
    <path d="M1 6.6L0.500244 5.97531C0.310472 6.12712 0.2 6.35697 0.2 6.6H1ZM8 1L8.49976 0.375305C8.20758 0.141565 7.79242 0.141565 7.50024 0.375305L8 1ZM15 6.6H15.8C15.8 6.35697 15.6895 6.12712 15.4998 5.97531L15 6.6ZM1 15.4H0.2H1ZM4.86667 17C4.86667 17.4418 5.22484 17.8 5.66667 17.8C6.10849 17.8 6.46667 17.4418 6.46667 17H4.86667ZM5.66667 9V8.2C5.22484 8.2 4.86667 8.55817 4.86667 9H5.66667ZM10.3333 9H11.1333C11.1333 8.55817 10.7752 8.2 10.3333 8.2V9ZM9.53333 17C9.53333 17.4418 9.89151 17.8 10.3333 17.8C10.7752 17.8 11.1333 17.4418 11.1333 17H9.53333ZM1.49976 7.2247L8.49976 1.6247L7.50024 0.375305L0.500244 5.97531L1.49976 7.2247ZM7.50024 1.6247L14.5002 7.2247L15.4998 5.97531L8.49976 0.375305L7.50024 1.6247ZM14.2 6.6V15.4H15.8V6.6H14.2ZM14.2 15.4C14.2 15.6193 14.1151 15.8253 13.9708 15.9737L15.118 17.089C15.5571 16.6373 15.8 16.0294 15.8 15.4H14.2ZM13.9708 15.9737C13.8272 16.1214 13.6374 16.2 13.4444 16.2V17.8C14.0766 17.8 14.6781 17.5415 15.118 17.089L13.9708 15.9737ZM13.4444 16.2H2.55556V17.8H13.4444V16.2ZM2.55556 16.2C2.36256 16.2 2.17275 16.1214 2.02921 15.9737L0.882016 17.089C1.32192 17.5415 1.92343 17.8 2.55556 17.8V16.2ZM2.02921 15.9737C1.88492 15.8253 1.8 15.6193 1.8 15.4H0.2C0.2 16.0294 0.442856 16.6373 0.882016 17.089L2.02921 15.9737ZM1.8 15.4V6.6H0.2V15.4H1.8ZM6.46667 17V9H4.86667V17H6.46667ZM5.66667 9.8H10.3333V8.2H5.66667V9.8ZM9.53333 9V17H11.1333V9H9.53333Z" fill=""></path>
  </symbol>
</svg>